# xmcd
#
# Track frame offsets:
#	150
#	18697
#	34658
#	55274
#	72165
#	89201
#	104574
#	124865
#	142739
#	160771
#	178241
#	195473
#	207299
#	224959
#	244508
#	261986
#	277904
#	292745
#	312377
#	329075
#
# Disc length: 4597 seconds
#
# Revision: 3
# Processed by: cddbd v1.5.2PL0 Copyright (c) Steve Scherf et al.
# Submitted via: EasyCDDAExtractor 11.5.0.1
#
DISCID=3c11f314
DTITLE=Various Artist - NCT 055
DYEAR=2003
DGENRE=Country
TTITLE0=Kenny Chesney - There Goes My Life
TTITLE1=Buddy Jewell - Sweet Southern Comfort
TTITLE2=Tim McGraw - Watch The Wind Blow By
TTITLE3=Sheryl Crow - The First Cut Is The Deepest
TTITLE4=Tracy Lawrence - Paint Me A Birmingham
TTITLE5=Sonya Isaacs - No Regrets Yet
TTITLE6=Alan Jackson - Remember When
TTITLE7=Jack Ingram - Only Daddy That'll Walk The Line
TTITLE8=Amanda Wilkinson - Gone From Love Too Long
TTITLE9=Clint Black - Spend My Time
TTITLE10=LeAnn Rimes - This Love
TTITLE11=Wayne Warner - Doing Something Right
TTITLE12=Patty Loveless - On Your Way Home
TTITLE13=Cross Canadian Ragweed - Constantly
TTITLE14=Rebecca Lynn Howard - I Need A Vacation
TTITLE15=Dierks Bentley - My Last Name
TTITLE16=James Taylor ft. Alison Krauss - How's The World Treating You
TTITLE17=Gary Allan - Songs About Rain
TTITLE18=Mindy Smith - Jolene
TTITLE19=Cledus T. Judd - Martie, Emily And Natalie (The Continuing Saga Of)
EXTD=
EXTT0=
EXTT1=
EXTT2=
EXTT3=
EXTT4=
EXTT5=
EXTT6=
EXTT7=
EXTT8=
EXTT9=
EXTT10=
EXTT11=
EXTT12=
EXTT13=
EXTT14=
EXTT15=
EXTT16=
EXTT17=
EXTT18=
EXTT19=
PLAYORDER=
